<svg width="44" height="44" viewBox="0 0 44 44" fill="none" xmlns="http://www.w3.org/2000/svg">
<circle cx="22" cy="22" r="21.5" transform="matrix(-1 0 0 1 44 0)" stroke="#FAFAFA" stroke-opacity="0.3"/>
<path d="M13.1433 21.6742L18.9807 16.135C19.1704 15.955 19.4788 15.955 19.6685 16.135C19.8583 16.315 19.8583 16.6077 19.6685 16.7877L14.662 21.5385L30.5135 21.5385C30.7821 21.5385 31 21.7453 31 22.0001C31 22.2549 30.7821 22.4617 30.5135 22.4617L14.662 22.4617L19.6685 27.2125C19.8583 27.3925 19.8583 27.6852 19.6685 27.8652C19.5732 27.9557 19.4487 28 19.3241 28C19.1996 28 19.0751 27.9548 18.9797 27.8652L13.1423 22.326C12.9526 22.146 12.9526 21.8533 13.1423 21.6733L13.1433 21.6742Z" fill="#FAFAFA" fill-opacity="0.3"/>
</svg>
