<!-- Generated by IcoMoon.io -->
<svg version="1.1" xmlns="http://www.w3.org/2000/svg" width="1024" height="1024" viewBox="0 0 1024 1024">
<title></title>
<g id="icomoon-ignore">
</g>
<path fill="#000" d="M512 221.867c-77.5 0-150.357 30.191-205.158 84.975-54.784 54.801-84.975 127.659-84.975 205.158s30.191 150.357 84.975 205.158c54.801 54.784 127.659 84.975 205.158 84.975s150.357-30.191 205.158-84.975c54.801-54.801 84.975-127.659 84.975-205.158s-30.174-150.357-84.975-205.158c-54.801-54.784-127.659-84.975-205.158-84.975zM693.009 693.010c-48.35 48.35-112.623 74.991-181.009 74.991s-132.659-26.641-181.009-74.991-74.991-112.623-74.991-181.009 26.641-132.659 74.991-181.009 112.623-74.991 181.009-74.991c62.652 0 121.702 22.579 168.363 63.505l-180.429 180.429c-6.673 6.673-6.673 17.459 0 24.132 3.328 3.328 7.697 5.001 12.066 5.001s8.738-1.673 12.066-5.001l180.429-180.429c40.926 46.66 63.505 105.711 63.505 168.363 0 68.386-26.624 132.659-74.991 181.009z"></path>
</svg>
