<!-- Generated by IcoMoon.io -->
<svg version="1.1" xmlns="http://www.w3.org/2000/svg" width="1024" height="1024" viewBox="0 0 1024 1024" fill="#FAFAFA">

<path fill="none" stroke-linejoin="round" stroke-linecap="round" stroke-miterlimit="4" stroke-width="46.0800" stroke="#FAFAFA" d="M723.2 339.932c-18.386 12.969-38.743 22.889-60.288 29.376-11.564-13.296-26.931-22.719-44.024-26.996-17.096-4.277-35.090-3.201-51.551 3.082-16.463 6.284-30.599 17.471-40.496 32.050s-15.077 31.845-14.841 49.465v19.2c-33.742 0.875-67.176-6.608-97.325-21.783s-62.477-51.309-81.875-78.931c0 0-70.4 186.538 102.4 263.339-39.542 26.839-86.647 40.3-134.4 38.4 172.8 96 384 0 384-220.801-0.018-5.348-0.532-10.683-1.536-15.936 19.594-19.325 33.423-43.724 39.936-70.464z"></path>
</svg>
